<svg xmlns="http://www.w3.org/2000/svg" width="15" height="19" viewBox="0 0 15 19">
  <metadata><?xpacket begin="﻿" id="W5M0MpCehiHzreSzNTczkc9d"?>
<x:xmpmeta xmlns:x="adobe:ns:meta/" x:xmptk="Adobe XMP Core 5.6-c138 79.159824, 2016/09/14-01:09:01        ">
   <rdf:RDF xmlns:rdf="http://www.w3.org/1999/02/22-rdf-syntax-ns#">
      <rdf:Description rdf:about=""/>
   </rdf:RDF>
</x:xmpmeta>
                                                                                                    
                                                                                                    
                                                                                                    
                                                                                                    
                                                                                                    
                                                                                                    
                                                                                                    
                                                                                                    
                                                                                                    
                                                                                                    
                                                                                                    
                                                                                                    
                                                                                                    
                                                                                                    
                                                                                                    
                                                                                                    
                                                                                                    
                                                                                                    
                                                                                                    
                                                                                                    
                           
<?xpacket end="w"?></metadata>
<defs>
    <style>
      .cls-1 {
        fill: #c6c3be;
        fill-rule: evenodd;
      }
    </style>
  </defs>
  <path id="blog" class="cls-1" d="M2209.95,2485.1a5.018,5.018,0,0,0-2.78-1.51v-0.1a4.081,4.081,0,0,0,1.9-1.6,4.582,4.582,0,0,0,.68-2.47,4.394,4.394,0,0,0-.49-2.12,3.692,3.692,0,0,0-1.51-1.47,6.058,6.058,0,0,0-2-.67,22.183,22.183,0,0,0-3.13-.16H2196v19h7.51a11.938,11.938,0,0,0,3.21-.36,6.633,6.633,0,0,0,2.33-1.2,5.058,5.058,0,0,0,1.42-1.77,5.6,5.6,0,0,0,.53-2.49A4.375,4.375,0,0,0,2209.95,2485.1Zm-5.2-3.63a1.529,1.529,0,0,1-.78.74,2.772,2.772,0,0,1-1,.27c-0.32.01-.89,0.02-1.69,0.02h-0.59v-4.02h0.32c0.84,0,1.47.01,1.9,0.02a3.025,3.025,0,0,1,1.1.23,1.333,1.333,0,0,1,.72.7,2.114,2.114,0,0,1,.24.94A2.542,2.542,0,0,1,2204.75,2481.47Zm1.1,7.85a1.858,1.858,0,0,1-.93.83,4.077,4.077,0,0,1-1.44.34c-0.47.02-1.32,0.03-2.54,0.03h-0.25v-4.76h0.86c0.84,0,1.51,0,2.01.02a3.564,3.564,0,0,1,1.18.18,2.177,2.177,0,0,1,1.06.75,2.407,2.407,0,0,1,.35,1.38A2.49,2.49,0,0,1,2205.85,2489.32Z" transform="translate(-2196 -2475)"/>
</svg>
