<svg xmlns="http://www.w3.org/2000/svg" width="25" height="21" viewBox="0 0 25 21">
  <metadata><?xpacket begin="﻿" id="W5M0MpCehiHzreSzNTczkc9d"?>
<x:xmpmeta xmlns:x="adobe:ns:meta/" x:xmptk="Adobe XMP Core 5.6-c138 79.159824, 2016/09/14-01:09:01        ">
   <rdf:RDF xmlns:rdf="http://www.w3.org/1999/02/22-rdf-syntax-ns#">
      <rdf:Description rdf:about=""/>
   </rdf:RDF>
</x:xmpmeta>
                                                                                                    
                                                                                                    
                                                                                                    
                                                                                                    
                                                                                                    
                                                                                                    
                                                                                                    
                                                                                                    
                                                                                                    
                                                                                                    
                                                                                                    
                                                                                                    
                                                                                                    
                                                                                                    
                                                                                                    
                                                                                                    
                                                                                                    
                                                                                                    
                                                                                                    
                                                                                                    
                           
<?xpacket end="w"?></metadata>
<defs>
    <style>
      .cls-1 {
        fill: #c6c3be;
        fill-rule: evenodd;
      }
    </style>
  </defs>
  <path id="twitter_" data-name="twitter " class="cls-1" d="M2249.47,2477.59l2.52-.52a21.3,21.3,0,0,1-2.52,2.56c0,0.01,0,0-.01,0a9.12,9.12,0,0,0,.01,1.54c-4.79,21.12-22.45,11.78-22.45,11.78,6.42,0.17,6.99-2.56,6.99-2.56-3.76-.58-4.49-3.07-4.49-3.07a1.566,1.566,0,0,0,2-.52,4.636,4.636,0,0,1-3.49-5.12,4.669,4.669,0,0,0,2.45.97c-0.46-.54-4.25-5.21-1.95-7.63,0,0,2.77,5.12,10.1,5.61l0.49-.13a5.193,5.193,0,0,1-.12-1.12,5.315,5.315,0,0,1,5.24-5.38c3.48,0,4.24,2.05,4.24,2.05l2.49-1.54S2250.7,2477.08,2249.47,2477.59Z" transform="translate(-2227 -2474)"/>
</svg>
