<svg id="weather_btn" xmlns="http://www.w3.org/2000/svg" width="30" height="30" viewBox="0 0 30 30">
  <metadata><?xpacket begin="﻿" id="W5M0MpCehiHzreSzNTczkc9d"?>
<x:xmpmeta xmlns:x="adobe:ns:meta/" x:xmptk="Adobe XMP Core 5.6-c138 79.159824, 2016/09/14-01:09:01        ">
   <rdf:RDF xmlns:rdf="http://www.w3.org/1999/02/22-rdf-syntax-ns#">
      <rdf:Description rdf:about=""/>
   </rdf:RDF>
</x:xmpmeta>
                                                                                                    
                                                                                                    
                                                                                                    
                                                                                                    
                                                                                                    
                                                                                                    
                                                                                                    
                                                                                                    
                                                                                                    
                                                                                                    
                                                                                                    
                                                                                                    
                                                                                                    
                                                                                                    
                                                                                                    
                                                                                                    
                                                                                                    
                                                                                                    
                                                                                                    
                                                                                                    
                           
<?xpacket end="w"?></metadata>
<defs>
    <style>
      .cls-1 {
        fill: #666;
        fill-rule: evenodd;
      }
    </style>
  </defs>
  <path class="cls-1" d="M1466.02,447.407a7.592,7.592,0,1,0,7.6,7.592A7.6,7.6,0,0,0,1466.02,447.407Zm0,13.226a5.634,5.634,0,1,1,5.64-5.634A5.646,5.646,0,0,1,1466.02,460.633Zm0-15.214a1.054,1.054,0,0,0,1.04-1.04v-3.341a1.045,1.045,0,0,0-2.09,0v3.341A1.036,1.036,0,0,0,1466.02,445.419Zm-8.24,2.8a1.081,1.081,0,0,0,.73.316,0.952,0.952,0,0,0,.72-0.316,1.007,1.007,0,0,0,0-1.449l-2.36-2.364a1.025,1.025,0,1,0-1.45,1.45ZM1456.43,455a1.056,1.056,0,0,0-1.05-1.04h-3.34a1.04,1.04,0,1,0,0,2.08h3.34A1.037,1.037,0,0,0,1456.43,455Zm1.35,6.776-2.36,2.363a1.008,1.008,0,0,0,0,1.45,1.061,1.061,0,0,0,.72.315,0.975,0.975,0,0,0,.73-0.315l2.36-2.364A1.025,1.025,0,1,0,1457.78,461.775Zm8.24,2.805a1.055,1.055,0,0,0-1.05,1.039v3.341a1.045,1.045,0,0,0,2.09,0v-3.341A1.033,1.033,0,0,0,1466.02,464.58Zm8.23-2.805a1.025,1.025,0,0,0-1.45,1.449l2.36,2.364a1.1,1.1,0,0,0,.73.315,0.939,0.939,0,0,0,.72-0.315,1.008,1.008,0,0,0,0-1.45Zm5.71-7.816h-3.35a1.04,1.04,0,1,0,0,2.08h3.35A1.04,1.04,0,0,0,1479.96,453.959Zm-6.44-5.42a0.957,0.957,0,0,0,.73-0.316l2.36-2.363a1.025,1.025,0,1,0-1.45-1.45l-2.36,2.364a1.007,1.007,0,0,0,0,1.449A0.909,0.909,0,0,0,1473.52,448.539Z" transform="translate(-1451 -440)"/>
</svg>
