<svg id="follower_btn" xmlns="http://www.w3.org/2000/svg" width="32" height="28.281" viewBox="0 0 32 28.281">
  <metadata><?xpacket begin="﻿" id="W5M0MpCehiHzreSzNTczkc9d"?>
<x:xmpmeta xmlns:x="adobe:ns:meta/" x:xmptk="Adobe XMP Core 5.6-c138 79.159824, 2016/09/14-01:09:01        ">
   <rdf:RDF xmlns:rdf="http://www.w3.org/1999/02/22-rdf-syntax-ns#">
      <rdf:Description rdf:about=""/>
   </rdf:RDF>
</x:xmpmeta>
                                                                                                    
                                                                                                    
                                                                                                    
                                                                                                    
                                                                                                    
                                                                                                    
                                                                                                    
                                                                                                    
                                                                                                    
                                                                                                    
                                                                                                    
                                                                                                    
                                                                                                    
                                                                                                    
                                                                                                    
                                                                                                    
                                                                                                    
                                                                                                    
                                                                                                    
                                                                                                    
                           
<?xpacket end="w"?></metadata>
<defs>
    <style>
      .cls-1 {
        fill: none;
        stroke: #666;
        stroke-width: 2px;
      }

      .cls-1, .cls-2 {
        fill-rule: evenodd;
      }

      .cls-2 {
        fill: #666;
      }
    </style>
  </defs>
  <path class="cls-1" d="M2240.7,78.757c-1.57,1.332-2.7,2.236-2.7,2.236s-5.07-4.06-8.59-7.642A28.047,28.047,0,0,1,2225.22,68s-1.22.6-1.22-4.238S2226.78,55,2231.54,55s6.46,3.284,6.46,3.284S2239.7,55,2244.46,55s7.54,3.921,7.54,8.758S2250.78,68,2250.78,68" transform="translate(-2223 -54)"/>
  <path id="Rounded_Rectangle_8_copy" data-name="Rounded Rectangle 8 copy" class="cls-2" d="M2249.01,76H2254a1,1,0,0,0,0-2h-4.99L2249,69a1,1,0,0,0-2,0l0.05,5H2242a1,1,0,0,0,0,2h5v5a1,1,0,0,0,2,0Z" transform="translate(-2223 -54)"/>
</svg>
