<svg id="honluv_btn_off" xmlns="http://www.w3.org/2000/svg" xmlns:xlink="http://www.w3.org/1999/xlink" width="64" height="64" viewBox="0 0 64 64">
  <metadata><?xpacket begin="﻿" id="W5M0MpCehiHzreSzNTczkc9d"?>
<x:xmpmeta xmlns:x="adobe:ns:meta/" x:xmptk="Adobe XMP Core 5.6-c138 79.159824, 2016/09/14-01:09:01        ">
   <rdf:RDF xmlns:rdf="http://www.w3.org/1999/02/22-rdf-syntax-ns#">
      <rdf:Description rdf:about=""/>
   </rdf:RDF>
</x:xmpmeta>
                                                                                                    
                                                                                                    
                                                                                                    
                                                                                                    
                                                                                                    
                                                                                                    
                                                                                                    
                                                                                                    
                                                                                                    
                                                                                                    
                                                                                                    
                                                                                                    
                                                                                                    
                                                                                                    
                                                                                                    
                                                                                                    
                                                                                                    
                                                                                                    
                                                                                                    
                                                                                                    
                           
<?xpacket end="w"?></metadata>
<defs>
    <style>
      .cls-1 {
        fill: #fff;
        stroke: #ffb83d;
        stroke-width: 1px;
        opacity: 0.9;
        filter: url(#filter);
      }

      .cls-2 {
        fill: #ffb83d;
        fill-rule: evenodd;
      }
    </style>
    <filter id="filter" x="0.5" y="0.5" width="63" height="63" filterUnits="userSpaceOnUse">
      <feOffset result="offset" dx="2.294" dy="3.277" in="SourceAlpha"/>
      <feGaussianBlur result="blur" stdDeviation="2"/>
      <feFlood result="flood" flood-color="#031420" flood-opacity="0.1"/>
      <feComposite result="composite" operator="in" in2="blur"/>
      <feBlend result="blend" in="SourceGraphic"/>
    </filter>
  </defs>
  <g style="fill: #fff; filter: url(#filter)">
    <circle id="circle" class="cls-1" cx="29.5" cy="28.5" r="28" style="stroke: inherit; filter: none; fill: inherit"/>
  </g>
  <use xlink:href="#circle" style="stroke: #ffb83d; filter: none; fill: none"/>
  <path class="cls-2" d="M1518.5,1559a2.968,2.968,0,0,0-2.29.99,3.652,3.652,0,0,0-.67,2.19c0.09,1.27.97,2.07,1.86,3s1.9,1.82,2.52,2.49a1.211,1.211,0,0,0,1.67.01c0.61-.64,1.64-1.52,2.53-2.44s1.81-1.81,1.81-3.14a3.467,3.467,0,0,0-.74-2.12,3.026,3.026,0,0,0-2.27-.97,5.058,5.058,0,0,0-2.22.66,4.02,4.02,0,0,0-2.2-.67h0Zm-0.01,2.08a6.483,6.483,0,0,1,1.76.72,1.218,1.218,0,0,0,.8.02,8.637,8.637,0,0,1,1.84-.73,0.925,0.925,0,0,1,.81,1,4.277,4.277,0,0,1-1.22,1.74c-0.53.54-1.13,1.1-1.71,1.65-0.58-.57-1.17-1.14-1.71-1.71a4.749,4.749,0,0,1-1.28-1.7A0.816,0.816,0,0,1,1518.49,1561.08Zm3.37,7.52c-0.2.5-.35,1.04-0.52,1.56a29.607,29.607,0,0,0-2.55-2.58,3.312,3.312,0,0,0-3.39.39,2.474,2.474,0,0,0-.76,3.11c1.41,1.87,2.88,3.75,4.32,5.61a3.105,3.105,0,0,0-1.48.85,2.738,2.738,0,0,0-.62,2.16,4.014,4.014,0,0,0-2.41,1.01,2.866,2.866,0,0,0-.64,2.16,3.238,3.238,0,0,0-2.08.78,3.024,3.024,0,0,0-.59,3,1.049,1.049,0,0,0,.27.48q2.295,2.25,4.58,4.52a6,6,0,0,0,5.47,1.15,12.626,12.626,0,0,0,5.25-2.71,15.892,15.892,0,0,0,3.8-4.66,6.63,6.63,0,0,0-1.3-6.96c-0.01-.02-0.03-0.04-0.04-0.06l-3.24-3.42c0.47-1.47.94-3,1.32-4.24a2.753,2.753,0,0,0-1.67-3.31,2.953,2.953,0,0,0-3.72,1.16h0Zm2.73,0.7a0.78,0.78,0,0,1,.55.81c-0.3,1.01-.63,2.03-0.95,3.05l-1.11-1.16,0.8-2.48A0.736,0.736,0,0,1,1524.59,1569.3Zm-6.91.13,9.8,10.35,0.02,0.02c1.57,1.97,1.55,3.45.95,4.87a11.94,11.94,0,0,1-3.25,3.88,10.557,10.557,0,0,1-4.25,2.22,3.541,3.541,0,0,1-3.38-.6l-4.29-4.23a0.776,0.776,0,0,1,.07-0.87,1.115,1.115,0,0,1,1.06-.2l2.47,2.31a1.2,1.2,0,0,0,1.57,0,1.027,1.027,0,0,0,0-1.48l-2.4-2.24a1.094,1.094,0,0,1,.07-1.37,1.3,1.3,0,0,1,1.15-.39l2.53,2.66a1.215,1.215,0,0,0,1.58.1,1.037,1.037,0,0,0,.09-1.48l-2.32-2.44a1.306,1.306,0,0,1-.01-1.61,1.1,1.1,0,0,1,1.45-.17l2.49,3.1a1.206,1.206,0,0,0,1.56.21,1.034,1.034,0,0,0,.22-1.46c-2.81-3.47-5.42-6.84-8.15-10.37a0.59,0.59,0,0,1,.21-0.73,0.694,0.694,0,0,1,.76-0.08h0Z" transform="translate(-1491.5 -1547.5)"/>
</svg>
