<svg xmlns="http://www.w3.org/2000/svg" width="24" height="40.031" viewBox="0 0 24 40.031">
  <metadata><?xpacket begin="﻿" id="W5M0MpCehiHzreSzNTczkc9d"?>
<x:xmpmeta xmlns:x="adobe:ns:meta/" x:xmptk="Adobe XMP Core 5.6-c138 79.159824, 2016/09/14-01:09:01        ">
   <rdf:RDF xmlns:rdf="http://www.w3.org/1999/02/22-rdf-syntax-ns#">
      <rdf:Description rdf:about=""/>
   </rdf:RDF>
</x:xmpmeta>
                                                                                                    
                                                                                                    
                                                                                                    
                                                                                                    
                                                                                                    
                                                                                                    
                                                                                                    
                                                                                                    
                                                                                                    
                                                                                                    
                                                                                                    
                                                                                                    
                                                                                                    
                                                                                                    
                                                                                                    
                                                                                                    
                                                                                                    
                                                                                                    
                                                                                                    
                                                                                                    
                           
<?xpacket end="w"?></metadata>
<defs>
    <style>
      .cls-1 {
        fill: #ccc;
        fill-rule: evenodd;
      }
    </style>
  </defs>
  <path id="honluv_icon_off" class="cls-1" d="M1965,861a3.558,3.558,0,0,0-2.74,1.176,4.122,4.122,0,0,0-.81,2.569c0.11,1.5,1.16,2.442,2.23,3.527s2.27,2.151,3.03,2.94a1.476,1.476,0,0,0,2,.013c0.73-.759,1.97-1.8,3.04-2.876s2.16-2.135,2.17-3.694a4.08,4.08,0,0,0-.89-2.492,3.733,3.733,0,0,0-2.73-1.15,6.229,6.229,0,0,0-2.66.779A4.965,4.965,0,0,0,1965,861h0Zm-0.02,2.454c0.62,0,.96.393,2.12,0.844a1.462,1.462,0,0,0,.96.025,9.85,9.85,0,0,1,2.21-.856,1.1,1.1,0,0,1,.98,1.175,5.2,5.2,0,0,1-1.48,2.046c-0.63.641-1.35,1.295-2.04,1.942-0.7-.667-1.41-1.341-2.06-2.006a5.6,5.6,0,0,1-1.53-2.007A0.957,0.957,0,0,1,1964.98,863.449Zm4.05,8.845c-0.23.589-.42,1.225-0.62,1.84-1.07-.924-1.9-2.273-3.06-3.042a4.061,4.061,0,0,0-4.07.46,2.9,2.9,0,0,0-.91,3.669c1.68,2.2,3.45,4.4,5.19,6.6a3.931,3.931,0,0,0-1.79,1,3.185,3.185,0,0,0-.73,2.544,4.879,4.879,0,0,0-2.9,1.188,3.315,3.315,0,0,0-.76,2.544,3.964,3.964,0,0,0-2.51.92,3.539,3.539,0,0,0-.71,3.528,1.288,1.288,0,0,0,.34.562q2.745,2.657,5.49,5.317a7.253,7.253,0,0,0,6.56,1.355,15.134,15.134,0,0,0,6.3-3.183,18.688,18.688,0,0,0,4.56-5.483c1.01-2.34.85-5.284-1.56-8.192a0.316,0.316,0,0,0-.05-0.077l-3.88-4.013c0.56-1.737,1.12-3.531,1.58-5a3.231,3.231,0,0,0-2-3.9c-1.67-.664-3.78-0.068-4.47,1.368h0Zm3.27,0.83a0.9,0.9,0,0,1,.67.946c-0.37,1.194-.76,2.4-1.14,3.592l-1.34-1.368,0.96-2.914A0.883,0.883,0,0,1,1972.3,873.124Zm-8.29.154,11.77,12.18,0.01,0.013c1.89,2.325,1.87,4.062,1.15,5.739a14.034,14.034,0,0,1-3.9,4.562,12.644,12.644,0,0,1-5.11,2.608c-1.71.377-3.07,0.2-4.04-.7l-5.15-4.972a0.9,0.9,0,0,1,.08-1.023,1.363,1.363,0,0,1,1.27-.242l2.96,2.722a1.479,1.479,0,0,0,1.89,0,1.194,1.194,0,0,0,0-1.738l-2.88-2.646a1.266,1.266,0,0,1,.09-1.61,1.558,1.558,0,0,1,1.37-.461l3.04,3.132a1.47,1.47,0,0,0,1.89.121,1.2,1.2,0,0,0,.11-1.744l-2.78-2.863a1.539,1.539,0,0,1-.02-1.9,1.36,1.36,0,0,1,1.75-.194l2.98,3.645a1.486,1.486,0,0,0,1.88.25,1.207,1.207,0,0,0,.27-1.72c-3.38-4.08-6.51-8.05-9.78-12.2a0.671,0.671,0,0,1,.24-0.858,0.846,0.846,0,0,1,.91-0.088h0Z" transform="translate(-1956 -861)"/>
</svg>
