<svg xmlns="http://www.w3.org/2000/svg" viewBox="0 0 29.76 26.58"><defs><style>.cls-1{fill:#72bdff;}.cls-2{fill:#5d5d5d;}</style></defs><title>8Asset 1</title><g id="Layer_2" data-name="Layer 2"><g id="Layer_1-2" data-name="Layer 1"><path class="cls-1" d="M7.79,10.69S8.34,6.13,12.55,7c0,0,1.94-4.56,6.42-3.9a6.64,6.64,0,0,1,6.2,4.84s5.2.93,4.54,6c0,0-.17,5.06-6.47,4.84H8.18a4.22,4.22,0,0,1-4.65-4A4.41,4.41,0,0,1,7.79,10.69Z"/><path class="cls-2" d="M24,5.3A7.93,7.93,0,0,0,9.63,4,5.18,5.18,0,0,0,4.69,8.09,5.06,5.06,0,0,0,5.07,18.2H22.31A6.56,6.56,0,0,0,24,5.3Zm-1.7,11.07H5.07a3.21,3.21,0,1,1,0-6.42,1.09,1.09,0,0,1,.32,0,.94.94,0,0,0,.71-.22.9.9,0,0,0,.32-.67A3.38,3.38,0,0,1,9.79,5.87a1.09,1.09,0,0,1,.32,0A.91.91,0,0,0,11,5.36a6.06,6.06,0,0,1,11.33,1,.93.93,0,0,0,.74.67,4.72,4.72,0,0,1-.8,9.37Z"/><path class="cls-2" d="M7.25,19.9A.93.93,0,0,0,6,20.41l-2,4.88a.93.93,0,0,0,.51,1.22,1.37,1.37,0,0,0,.35.06A1,1,0,0,0,5.81,26l2-4.88A.93.93,0,0,0,7.25,19.9Z"/><path class="cls-2" d="M12.17,19.9a.93.93,0,0,0-1.22.51L9,25.29a.93.93,0,0,0,.51,1.22,1.37,1.37,0,0,0,.35.06,1,1,0,0,0,.87-.58l2-4.88A.93.93,0,0,0,12.17,19.9Z"/><path class="cls-2" d="M17.08,19.9a.93.93,0,0,0-1.22.51l-2,4.88a.93.93,0,0,0,.51,1.22,1.37,1.37,0,0,0,.35.06,1,1,0,0,0,.87-.58l2-4.88A.93.93,0,0,0,17.08,19.9Z"/><path class="cls-2" d="M22,19.9a.93.93,0,0,0-1.22.51l-2,4.88a.93.93,0,0,0,.51,1.22,1.37,1.37,0,0,0,.35.06,1,1,0,0,0,.87-.58l2-4.88A.93.93,0,0,0,22,19.9Z"/></g></g></svg>