<svg xmlns="http://www.w3.org/2000/svg" viewBox="0 0 33.87 23.53"><defs><style>.cls-1{fill:#ff5757;}.cls-2{fill:#5d5d5d;}.cls-3{fill:#72bdff;}</style></defs><title>Asset 4</title><g id="Layer_2" data-name="Layer 2"><g id="Layer_1-2" data-name="Layer 1"><circle class="cls-1" cx="13.12" cy="11.55" r="5.09"/><path class="cls-2" d="M11.39,4.12a.78.78,0,0,0,.79-.79V.79a.79.79,0,1,0-1.58,0V3.33A.82.82,0,0,0,11.39,4.12Z"/><path class="cls-2" d="M5.15,6.28a.81.81,0,0,0,.55.24.68.68,0,0,0,.55-.24.77.77,0,0,0,0-1.1L4.42,3.36a.78.78,0,0,0-1.1,1.1Z"/><path class="cls-2" d="M4.12,11.42a.78.78,0,0,0-.79-.79H.79a.79.79,0,1,0,0,1.58H3.33A.8.8,0,0,0,4.12,11.42Z"/><path class="cls-2" d="M5.15,16.57,3.33,18.39a.77.77,0,0,0,0,1.1.81.81,0,0,0,.55.24.68.68,0,0,0,.55-.24l1.82-1.82a.78.78,0,0,0-1.1-1.1Z"/><path class="cls-2" d="M17.12,6.48a.68.68,0,0,0,.55-.24l1.82-1.82a.78.78,0,0,0-1.1-1.1L16.57,5.15a.77.77,0,0,0,0,1.1A.68.68,0,0,0,17.12,6.48Z"/><path class="cls-2" d="M28.47,11.35A6.64,6.64,0,0,0,17.08,9.3a6,6,0,1,0-8.58,7.37,3.94,3.94,0,0,0-.21,1.27,4.25,4.25,0,0,0,4.25,4.25H27.06a5.51,5.51,0,0,0,1.41-10.84Zm-19.24,4a4.46,4.46,0,0,1-2.3-3.91,4.49,4.49,0,0,1,8.85-1.06,4.4,4.4,0,0,0-3.53,3.36A4.21,4.21,0,0,0,9.23,15.33Zm17.84,5.35H12.55a2.71,2.71,0,1,1,0-5.42h.27a.74.74,0,0,0,.58-.17.72.72,0,0,0,.27-.55,2.83,2.83,0,0,1,2.81-2.71h.27a.76.76,0,0,0,.79-.45,5.11,5.11,0,0,1,9.57.82.69.69,0,0,0,.62.55A4,4,0,0,1,31,16.67,4,4,0,0,1,27.06,20.68Z"/><path class="cls-3" d="M15.25,16.7s.47-3.88,4-3.18c0,0,1.64-3.88,5.44-3.32A5.63,5.63,0,0,1,30,14.32s4.41.79,3.84,5.09c0,0-.14,4.3-5.49,4.11H15.58a3.58,3.58,0,0,1-3.94-3.41A3.74,3.74,0,0,1,15.25,16.7Z"/></g></g></svg>