<svg xmlns="http://www.w3.org/2000/svg" viewBox="0 0 17.27 30.74"><defs><style>.cls-1{fill:#fb2;}.cls-2{fill:none;stroke:#5d5d5d;stroke-linecap:round;stroke-linejoin:round;stroke-width:1.9px;}</style></defs><title>Asset 3</title><g id="Layer_2" data-name="Layer 2"><g id="Layer_1-2" data-name="Layer 1"><path class="cls-1" d="M15.89.48,3.91,15.4a.75.75,0,0,0,.58,1.22h5.58a.27.27,0,0,1,.24.4L4.52,28.6a.38.38,0,0,0,.64.42L17.11,14.09a.75.75,0,0,0-.58-1.22H11a.27.27,0,0,1-.24-.4L16.53.86A.38.38,0,0,0,15.89.48Z"/><path class="cls-2" d="M13.09,1.11,1.11,16a.75.75,0,0,0,.58,1.22h6l-6,12a.38.38,0,0,0,.64.42L14.3,14.72a.75.75,0,0,0-.58-1.22h-6l6-12A.38.38,0,0,0,13.09,1.11Z"/></g></g></svg>