<svg xmlns="http://www.w3.org/2000/svg" viewBox="0 0 33.46 21.26"><defs><style>.cls-1{fill:#72bdff;}.cls-2{fill:#5d5d5d;}</style></defs><title>Asset 6</title><g id="Layer_2" data-name="Layer 2"><g id="Layer_1-2" data-name="Layer 1"><path class="cls-1" d="M8.72,12.16S9.34,7,14.08,7.92c0,0,2.18-5.17,7.23-4.42a7.48,7.48,0,0,1,7,5.48s5.86,1.06,5.11,6.79c0,0-.19,5.73-7.29,5.48H9.16A4.76,4.76,0,0,1,3.93,16.7,5,5,0,0,1,8.72,12.16Z"/><path class="cls-2" d="M24.75,20.27H5.63A5.64,5.64,0,0,1,5.18,9a5.76,5.76,0,0,1,5.51-4.52,8.79,8.79,0,0,1,16,1.4,7.32,7.32,0,0,1-1.89,14.39ZM5.63,11.1a3.58,3.58,0,0,0,0,7.15H24.75a5.26,5.26,0,0,0,.9-10.44,1.08,1.08,0,0,1-.82-.74A6.74,6.74,0,0,0,12.21,6a1,1,0,0,1-1,.58h-.37a3.75,3.75,0,0,0-3.74,3.58.93.93,0,0,1-.37.74.91.91,0,0,1-.78.25S5.76,11.1,5.63,11.1Z"/></g></g></svg>