<svg xmlns="http://www.w3.org/2000/svg" viewBox="0 0 29.76 27.47"><defs><style>.cls-1{fill:#72bdff;}.cls-2{fill:#5d5d5d;}</style></defs><title>7Asset 2</title><g id="Layer_2" data-name="Layer 2"><g id="Layer_1-2" data-name="Layer 1"><path class="cls-1" d="M7.51,10.83S8.07,6.21,12.33,7c0,0,2-4.62,6.5-4A6.73,6.73,0,0,1,25.11,8s5.27.95,4.6,6.07c0,0-.17,5.12-6.56,4.9H7.9a4.28,4.28,0,0,1-4.71-4.06A4.47,4.47,0,0,1,7.51,10.83Z"/><path class="cls-2" d="M23.67,5.22A7.82,7.82,0,0,0,9.49,4,5.11,5.11,0,0,0,4.62,8a5,5,0,0,0,.38,10H22A6.47,6.47,0,0,0,23.67,5.22ZM22,16.14H5A3.16,3.16,0,0,1,5,9.81a1.08,1.08,0,0,1,.32,0A.93.93,0,0,0,6,9.62.89.89,0,0,0,6.33,9,3.33,3.33,0,0,1,9.65,5.79a1.08,1.08,0,0,1,.32,0,.9.9,0,0,0,.92-.54,6,6,0,0,1,11.17.95.92.92,0,0,0,.73.66A4.65,4.65,0,0,1,22,16.14Z"/><circle class="cls-2" cx="22.66" cy="21.55" r="1.33"/><circle class="cls-2" cx="16.96" cy="21.55" r="1.33"/><circle class="cls-2" cx="11.33" cy="21.26" r="1.33"/><circle class="cls-2" cx="8.67" cy="25.88" r="1.33"/><circle class="cls-2" cx="19.65" cy="25.88" r="1.33"/><circle class="cls-2" cx="14.3" cy="26.14" r="1.33"/><circle class="cls-2" cx="5.82" cy="21.55" r="1.33"/></g></g></svg>