<svg xmlns="http://www.w3.org/2000/svg" viewBox="0 0 10 7.59"><defs><style>.cls-1{fill:#5d5d5d;}</style></defs><title>Asset 1</title><g id="Layer_2" data-name="Layer 2"><g id="레이어_1" data-name="레이어 1"><path class="cls-1" d="M10,2.62a1.53,1.53,0,0,0-3.05,0,.37.37,0,1,0,.74,0,.78.78,0,1,1,.78.78H1.09a.37.37,0,1,0,0,.74H7.26a.78.78,0,1,1-.78.78.37.37,0,0,0-.74,0,1.53,1.53,0,1,0,3.05,0,1.56,1.56,0,0,0-.22-.79A1.5,1.5,0,0,0,10,2.62Z"/><path class="cls-1" d="M4,4.71H1.84a.37.37,0,0,0,0,.74H4a.71.71,0,1,1-.71.71.37.37,0,0,0-.74,0A1.44,1.44,0,1,0,4,4.71Z"/><path class="cls-1" d="M6.62,1.42a1.42,1.42,0,1,0-2.84,0,.37.37,0,0,0,.74,0,.68.68,0,1,1,.68.68H.37a.37.37,0,1,0,0,.74H5.2A1.42,1.42,0,0,0,6.62,1.42Z"/></g></g></svg>