<svg xmlns="http://www.w3.org/2000/svg" viewBox="0 0 28.32 28.35"><defs><style>.cls-1{fill:#ff5757;}.cls-2{fill:#5d5d5d;}</style></defs><title>Asset 5</title><g id="Layer_2" data-name="Layer 2"><g id="Layer_1-2" data-name="Layer 1"><circle class="cls-1" cx="16.24" cy="14.64" r="6.06"/><path class="cls-2" d="M14.17,7a7.17,7.17,0,1,0,7.17,7.17A7.18,7.18,0,0,0,14.17,7Zm0,12.5a5.32,5.32,0,1,1,5.32-5.32A5.33,5.33,0,0,1,14.17,19.5Z"/><path class="cls-2" d="M14.17,5.12a1,1,0,0,0,1-1V1a1,1,0,0,0-2,0V4.14A1,1,0,0,0,14.17,5.12Z"/><path class="cls-2" d="M6.4,7.77a1,1,0,0,0,.68.3.9.9,0,0,0,.68-.3,1,1,0,0,0,0-1.37L5.54,4.17A1,1,0,1,0,4.17,5.54Z"/><path class="cls-2" d="M5.12,14.17a1,1,0,0,0-1-1H1a1,1,0,0,0,0,2H4.14A1,1,0,0,0,5.12,14.17Z"/><path class="cls-2" d="M6.4,20.57,4.17,22.81a1,1,0,0,0,0,1.37,1,1,0,0,0,.68.3.9.9,0,0,0,.68-.3l2.23-2.23A1,1,0,0,0,6.4,20.57Z"/><path class="cls-2" d="M14.17,23.23a1,1,0,0,0-1,1v3.16a1,1,0,1,0,2,0V24.21A1,1,0,0,0,14.17,23.23Z"/><path class="cls-2" d="M21.94,20.57a1,1,0,0,0-1.37,1.37l2.23,2.23a1,1,0,0,0,.68.3.9.9,0,0,0,.68-.3,1,1,0,0,0,0-1.37Z"/><path class="cls-2" d="M27.33,13.19H24.18a1,1,0,0,0,0,2h3.16a1,1,0,0,0,0-2Z"/><path class="cls-2" d="M21.26,8.07a.9.9,0,0,0,.68-.3l2.23-2.23a1,1,0,1,0-1.37-1.37L20.57,6.4a1,1,0,0,0,0,1.37A.86.86,0,0,0,21.26,8.07Z"/></g></g></svg>